PathFileType	4	(X/Y/Z)	C:\Users\chris\Documents\GitHub\baseballds\vids\pitch1_Sports2D\pitch1_Sports2D_m_person00.trc
DataRate	CameraRate	NumFrames	NumMarkers	Units	OrigDataRate	OrigDataStartFrame	OrigNumFrames
30	30	11	22	m	30	0	154
Frame#	Time	Hip			RHip			RKnee			RAnkle			RBigToe			RSmallToe			RHeel			LHip			LKnee			LAnkle			LBigToe			LSmallToe			LHeel			Neck			Head			Nose			RShoulder			RElbow			RWrist			LShoulder			LElbow			LWrist		
		X1	Y1	Z1	X2	Y2	Z2	X3	Y3	Z3	X4	Y4	Z4	X5	Y5	Z5	X6	Y6	Z6	X7	Y7	Z7	X8	Y8	Z8	X9	Y9	Z9	X10	Y10	Z10	X11	Y11	Z11	X12	Y12	Z12	X13	Y13	Z13	X14	Y14	Z14	X15	Y15	Z15	X16	Y16	Z16	X17	Y17	Z17	X18	Y18	Z18	X19	Y19	Z19	X20	Y20	Z20	X21	Y21	Z21	X22	Y22	Z22
0	0.0	1.4782526023444815	0.933377591124342	0.0	1.3711238260728145	0.8911609378639811	0.0	1.421427889316344	0.4496609333122576	0.0	1.4596052420487629	0.09821005106926269	0.0	1.4939280270556814	-0.028371490320025373	0.0	1.4215218161958527	-0.02465403284332021	0.0	1.4770265017732354	0.061292126452580475	0.0	1.5959591567167752	0.9045835753913031	0.0	1.6586551694139735	0.4880432772991549	0.0	1.7593011489978343	0.1368606569046499	0.0	1.708050595918286	-0.001443193768504487	0.0	1.77929605513039	0.009119797102411386	0.0	1.7874331726112178	0.08643628748937238	0.0	1.4115682985799385	1.5172853472037349	0.0	1.4519868401554383	1.7888628682589174	0.0	1.545548816637818	1.6431248069498394	0.0	1.2143462398712221	1.4006952494674436	0.0	1.226458520736433	1.1333731456026979	0.0	1.3619874909646048	1.240172688214367	0.0	1.6139402351085144	1.4522293037383895	0.0	1.6713530917428188	1.1598293960458244	0.0	1.5815259188352537	1.2004657178749767	0.0
1	0.03333333333333333	1.4751382729402989	0.9237429049255067	0.0	1.3663259586518846	0.875891812107098	0.0	1.4186791923893738	0.4476826640651289	0.0	1.4550437760964243	0.10330549684623752	0.0	1.4902660466388933	-0.02500859156560678	0.0	1.4197279244299332	-0.024264187807308102	0.0	1.472730795276584	0.06120594865642636	0.0	1.5900306661832246	0.8942644218766823	0.0	1.65907457807678	0.48470459981111635	0.0	1.7584460875629908	0.1487130243887985	0.0	1.7132224793544615	0.006527563502990154	0.0	1.7845042483126332	0.016043808134347595	0.0	1.780764159762896	0.09907786541547679	0.0	1.4054672501102567	1.5193210746067962	0.0	1.4454128272688318	1.7873282790533531	0.0	1.5380095407338499	1.6378857264161375	0.0	1.2086010812235566	1.40681055770913	0.0	1.2159579630080815	1.1351463706036529	0.0	1.3532690423395832	1.2423367658076936	0.0	1.6057440005083752	1.456553007153013	0.0	1.6735902671725913	1.1734737192098375	0.0	1.6060043039187857	1.1926912526975846	0.0
2	0.06666666666666667	1.4713474499330783	0.9194816249434024	0.0	1.3617948485748226	0.8698802674282254	0.0	1.4155569118885885	0.44711744881756554	0.0	1.4509835637178716	0.10359715362766836	0.0	1.4901426015163355	-0.02423097343429674	0.0	1.41950717179944	-0.026383679345373848	0.0	1.469030206803024	0.060128932188643215	0.0	1.585047195646328	0.8896934510052436	0.0	1.657276515620251	0.4832885530424327	0.0	1.7559195297348076	0.15568481773517762	0.0	1.7170982685589729	0.012310695998741919	0.0	1.7883720786565447	0.0218654458187026	0.0	1.7742939252496353	0.10696988795971989	0.0	1.400166425635358	1.5203492907337706	0.0	1.4399131165421992	1.7857257784844494	0.0	1.5323350558550952	1.6361330375546796	0.0	1.2032578286200202	1.4082665417939708	0.0	1.205688862405255	1.1336041071837186	0.0	1.339898714193969	1.238130796557898	0.0	1.5996578740445215	1.4573526727577688	0.0	1.6711811685252924	1.1771272269633732	0.0	1.6131876394168823	1.1857317730756127	0.0
3	0.1	1.4671658266888405	0.919656374596648	0.0	1.3581115226162854	0.8710132050909998	0.0	1.4122929931757475	0.4477944320766431	0.0	1.4476518986435807	0.09954818537490755	0.0	1.492093201171776	-0.02528208630508709	0.0	1.420736461180176	-0.029440363503396436	0.0	1.4667106873234927	0.055910776753997145	0.0	1.5810690401268033	0.890280451581247	0.0	1.6537831621132517	0.48327479771162796	0.0	1.7528175378568651	0.15751907750170122	0.0	1.7165030581993446	0.01649079772175961	0.0	1.788435795443799	0.025661332733078187	0.0	1.7705941393215745	0.10926816182844411	0.0	1.3956979202046822	1.5202096233536087	0.0	1.435013062246243	1.7846957173557554	0.0	1.528135549322242	1.6383322605997301	0.0	1.1983073906725394	1.4061252300494063	0.0	1.1969350596082315	1.1293548940456346	0.0	1.3266029188320894	1.2261378251727577	0.0	1.5962687308857377	1.4550341644207299	0.0	1.6656595264769967	1.171262680967793	0.0	1.6007838035431414	1.1789260369335701	0.0
4	0.13333333333333333	1.4634862122720806	0.9199302460113123	0.0	1.3549113313827923	0.8720302534605623	0.0	1.4089750740266123	0.4481765021609119	0.0	1.4453397583893706	0.09552647881405414	0.0	1.4917841023381073	-0.02601746675889717	0.0	1.4209204338182777	-0.03036248146247127	0.0	1.4651843301049656	0.05020845136792372	0.0	1.577252299088971	0.8915500851439159	0.0	1.6501750571949432	0.48310383370926957	0.0	1.7510091652778592	0.15742280145576573	0.0	1.7094137154479037	0.01928239841332162	0.0	1.7832114657528884	0.026880990500889542	0.0	1.7719139073195713	0.10891123833453038	0.0	1.39196518314097	1.519689963590349	0.0	1.4303404484742923	1.7842434336744963	0.0	1.5244707937864292	1.6414499376259077	0.0	1.1946367425278988	1.405600535555187	0.0	1.1893355936862353	1.1248985627563841	0.0	1.3176509889264414	1.2120451275466007	0.0	1.5948600907403154	1.4528535455193274	0.0	1.6617483274592	1.163177300072292	0.0	1.5831306372112588	1.1715665772405535	0.0
5	0.16666666666666666	1.4609310706008807	0.9184964339742175	0.0	1.3515213043717922	0.8704203411737341	0.0	1.4058259791544776	0.44713757955854466	0.0	1.4435882156004336	0.09472757414575199	0.0	1.4883079525688208	-0.025471383267826334	0.0	1.4182333593104959	-0.028896233490765453	0.0	1.4627686304926555	0.048422322667333706	0.0	1.5733583228509889	0.8906282895640575	0.0	1.647235568725204	0.48276638333472344	0.0	1.750808388228122	0.15644985517746607	0.0	1.698436937604203	0.018816171574405446	0.0	1.7744335286251038	0.0254338497961247	0.0	1.7765167802684343	0.1070466831113063	0.0	1.389707562083678	1.5188529376251003	0.0	1.4278831394216174	1.7835678234204166	0.0	1.5223666987077176	1.640831842988779	0.0	1.1937137248186498	1.4079726348707646	0.0	1.1815577602664464	1.12057068482379	0.0	1.3128057249795289	1.2023482322065269	0.0	1.594746566035572	1.45160226900031	0.0	1.6605685250724382	1.156025763897148	0.0	1.5738475911202345	1.1634746121443016	0.0
6	0.2	1.4593509784176144	0.9162194560494326	0.0	1.3485173863263857	0.8682300933593099	0.0	1.4036556007627803	0.44510668594793346	0.0	1.441583254730398	0.09596108920244675	0.0	1.4852093022424937	-0.025424854629550447	0.0	1.414380607451869	-0.028317187671768985	0.0	1.4596166852944488	0.051124427738299935	0.0	1.5706114292003222	0.8880531352782479	0.0	1.6450584899280591	0.4826034667036776	0.0	1.7508142736114838	0.15292708876422367	0.0	1.6882209871199338	0.014042206903810379	0.0	1.7653481953122538	0.021414832541342136	0.0	1.7798789918647264	0.10235489257922399	0.0	1.389827203219852	1.5164555599634184	0.0	1.4292021079932977	1.7822909159032863	0.0	1.5236635242935415	1.63570604476874	0.0	1.1950173669381712	1.4083208969164465	0.0	1.174830621681014	1.1148342949418586	0.0	1.313596098490201	1.1966320582705645	0.0	1.5957370413100613	1.4486286994964186	0.0	1.6601250145911328	1.1470931028758655	0.0	1.57079032851577	1.1545054944456388	0.0
7	0.23333333333333334	1.4583633890877759	0.9139896332145256	0.0	1.3469952241892182	0.8679861171028075	0.0	1.4027221015377407	0.44364709344983577	0.0	1.4397755049075014	0.09544440899232781	0.0	1.4850517340531015	-0.028268148964332714	0.0	1.4123022479675327	-0.03126107677987898	0.0	1.4577165527048646	0.052725260721332136	0.0	1.5699699920473529	0.8862164299826525	0.0	1.643207509208011	0.48175159369020587	0.0	1.749103998262007	0.14699996987854136	0.0	1.6812484766780986	0.007067345886131076	0.0	1.7583341889459845	0.015805751763185744	0.0	1.7791879775963104	0.09594697385107079	0.0	1.3921222978127552	1.512392397281233	0.0	1.432143662729447	1.7802212515582463	0.0	1.527812885556256	1.6305714021752817	0.0	1.1966985567737973	1.4038294215496445	0.0	1.1710553437727413	1.1069788089782389	0.0	1.3195959523593368	1.1904072489093722	0.0	1.5974207236455946	1.442808578208709	0.0	1.6614194762784453	1.1360380672183845	0.0	1.5663337867592064	1.1446706136348619	0.0
8	0.26666666666666666	1.4580035504427626	0.9121958840552471	0.0	1.346982340773979	0.8702680831850468	0.0	1.4024310450138582	0.4438335238440263	0.0	1.438734039687734	0.09230563848251881	0.0	1.4869505267503966	-0.032513824573421155	0.0	1.4130514669361562	-0.035694376711352546	0.0	1.4575001916810348	0.05041433168493682	0.0	1.5706586708207795	0.8861564030504142	0.0	1.640950859176794	0.47936708248967624	0.0	1.7455528309380965	0.14184694065455178	0.0	1.6778267387088692	0.001696575284080235	0.0	1.7546455531584881	0.011025408634592594	0.0	1.775446423590929	0.09212799811114693	0.0	1.395353577149011	1.508661575384342	0.0	1.4344550246688479	1.777013815747804	0.0	1.5320821309693544	1.6276966132574526	0.0	1.1984577889394372	1.3983431866090852	0.0	1.169392389752736	1.0976320171289424	0.0	1.3244823403319417	1.1817958970224725	0.0	1.5985617156501668	1.4361999703859265	0.0	1.6675216733257467	1.1274459712717197	0.0	1.5621399180011932	1.1335926882728942	0.0
9	0.3	1.458233687569268	0.910938203376861	0.0	1.3479721801809124	0.8726022885459908	0.0	1.402780750574738	0.44486755667625016	0.0	1.4380026624657782	0.0895836885031726	0.0	1.4888448086585189	-0.03455020538167627	0.0	1.4150100602405484	-0.03780629954762918	0.0	1.4576640420044955	0.04700359400072579	0.0	1.5713738477945254	0.8865575843796375	0.0	1.6383391677791035	0.4757739683318703	0.0	1.742254936465909	0.13944529733936148	0.0	1.6769122301803234	-0.0003636561604518018	0.0	1.7537690012090934	0.008400376157992238	0.0	1.771547560954819	0.0924620959794346	0.0	1.3981214240594735	1.5064940897815406	0.0	1.437163997488539	1.773274505366594	0.0	1.5348082001827101	1.6250521880518922	0.0	1.200781980788776	1.3956918643686536	0.0	1.16832811984117	1.0886615734887322	0.0	1.3253905085988804	1.1723303949228667	0.0	1.597912552697287	1.4304593041067644	0.0	1.6774477001162054	1.124493558697471	0.0	1.5637213006476207	1.1212872135753154	0.0
10	0.3333333333333333	1.45888082855565	0.9102454479611167	0.0	1.3498180604425538	0.8718912264977333	0.0	1.4045824605567787	0.44500976096146444	0.0	1.4375644051294165	0.08910326279891548	0.0	1.489301062903874	-0.03428156303336883	0.0	1.415464783888104	-0.0376152385889293	0.0	1.4577897473751085	0.045110646797985925	0.0	1.5720105358826824	0.8864414620968819	0.0	1.6367118274232133	0.47259755928336733	0.0	1.7410535074562363	0.13846246251835226	0.0	1.6763839462974879	-0.000639309366675137	0.0	1.7534620721617016	0.006832624085242855	0.0	1.769339419482726	0.0931689103645245	0.0	1.3997899709079733	1.5051177705491916	0.0	1.4418282526382646	1.7702843167029463	0.0	1.53654370177479	1.6211080708886274	0.0	1.2033609797912805	1.395044036348181	0.0	1.1678891266702511	1.0829188130014435	0.0	1.3277738181042666	1.1631367364074157	0.0	1.5961962680268458	1.4255162837116362	0.0	1.687439202773529	1.125694504853817	0.0	1.57156824847051	1.1093183755111484	0.0
